<svg width="43" height="37" viewBox="0 0 43 37" fill="none" xmlns="http://www.w3.org/2000/svg">
<path d="M30.8407 1.20306C33.0485 1.20434 35.2064 1.83504 37.0416 3.01543C38.8768 4.19582 40.3069 5.87293 41.1512 7.83477C41.9956 9.79662 42.2162 11.9552 41.7852 14.0375C41.3542 16.1199 40.2909 18.0327 38.7298 19.5341L37.4027 20.8223L35.6413 22.5043L21.608 36L7.57465 22.5063L5.81332 20.8242L4.48617 19.5361C3.40354 18.5495 2.53739 17.3643 1.93881 16.0505C1.34024 14.7367 1.02137 13.3209 1.00104 11.8867C0.980702 10.4524 1.2593 9.02881 1.82041 7.6998C2.38151 6.3708 3.21374 5.16335 4.26799 4.1487C5.32224 3.13405 6.57715 2.33276 7.95866 1.79212C9.34017 1.25148 10.8203 0.982447 12.3117 1.00089C13.8031 1.01933 15.2755 1.32487 16.6421 1.89949C18.0087 2.47411 19.2418 3.30616 20.2686 4.34654L21.608 5.63466L22.9495 4.34654C25.0423 2.33522 27.8799 1.20527 30.8386 1.20503" stroke="black" stroke-width="1.5" stroke-miterlimit="10" stroke-linecap="round" stroke-linejoin="round"/>
</svg>
