<svg width="40" height="40" viewBox="0 0 40 40" fill="none" xmlns="http://www.w3.org/2000/svg">
<path d="M20 28.3333C20.8841 28.3333 21.7319 28.6845 22.357 29.3096C22.9822 29.9348 23.3334 30.7826 23.3334 31.6667C23.3334 32.5507 22.9822 33.3986 22.357 34.0237C21.7319 34.6488 20.8841 35 20 35C19.116 35 18.2681 34.6488 17.643 34.0237C17.0179 33.3986 16.6667 32.5507 16.6667 31.6667C16.6667 30.7826 17.0179 29.9348 17.643 29.3096C18.2681 28.6845 19.116 28.3333 20 28.3333ZM20 16.6667C20.8841 16.6667 21.7319 17.0179 22.357 17.643C22.9822 18.2681 23.3334 19.1159 23.3334 20C23.3334 20.8841 22.9822 21.7319 22.357 22.357C21.7319 22.9821 20.8841 23.3333 20 23.3333C19.116 23.3333 18.2681 22.9821 17.643 22.357C17.0179 21.7319 16.6667 20.8841 16.6667 20C16.6667 19.1159 17.0179 18.2681 17.643 17.643C18.2681 17.0179 19.116 16.6667 20 16.6667ZM20 5C20.8841 5 21.7319 5.35119 22.357 5.97631C22.9822 6.60143 23.3334 7.44928 23.3334 8.33333C23.3334 9.21739 22.9822 10.0652 22.357 10.6904C21.7319 11.3155 20.8841 11.6667 20 11.6667C19.116 11.6667 18.2681 11.3155 17.643 10.6904C17.0179 10.0652 16.6667 9.21739 16.6667 8.33333C16.6667 7.44928 17.0179 6.60143 17.643 5.97631C18.2681 5.35119 19.116 5 20 5Z" fill="black"/>
</svg>
