<svg width="45" height="45" viewBox="0 0 45 45" fill="none" xmlns="http://www.w3.org/2000/svg">
<path d="M26.2818 33.7499L22.5 37.4999L8.43745 23.5724C7.5099 22.6698 6.77928 21.5849 6.29161 20.3861C5.80393 19.1873 5.56976 17.9004 5.60384 16.6067C5.63792 15.3129 5.93951 14.0402 6.48962 12.8687C7.03974 11.6972 7.82646 10.6523 8.80024 9.79974C9.77402 8.94723 10.9138 8.30557 12.1477 7.91518C13.3817 7.52479 14.6831 7.39412 15.97 7.53141C17.2569 7.66869 18.5015 8.07095 19.6253 8.71285C20.7492 9.35476 21.7279 10.2224 22.5 11.2612C23.9667 9.3084 26.1376 8.00511 28.5507 7.62863C30.9637 7.25214 33.4285 7.83217 35.4204 9.2453C37.4123 10.6584 38.7741 12.7931 39.2161 15.195C39.6581 17.597 39.1453 20.0766 37.7868 22.1062" stroke="black" stroke-width="3" stroke-linecap="round" stroke-linejoin="round"/>
<path d="M31.4914 36L37.7851 29.8999C38.5635 29.1403 39 28.1159 39 27.0485C39 25.9812 38.5635 24.9567 37.7851 24.1971C37.4026 23.8225 36.9467 23.5248 36.4438 23.3213C35.9409 23.1178 35.4011 23.0125 34.8556 23.0116C34.3102 23.0106 33.7699 23.114 33.2663 23.3158C32.7627 23.5176 32.3056 23.8137 31.9218 24.187L31.5019 24.5943L31.0835 24.1856C30.701 23.811 30.2451 23.5133 29.7422 23.3097C29.2393 23.1062 28.6995 23.0009 28.154 23C27.6085 22.9991 27.0683 23.1025 26.5647 23.3043C26.061 23.506 25.604 23.8022 25.2201 24.1754C24.4403 24.9337 24.002 25.9574 24 27.0248C23.998 28.0921 24.4326 29.1173 25.2096 29.8783L31.4809 36H31.4914Z" stroke="black" stroke-width="3" stroke-linecap="round" stroke-linejoin="round"/>
</svg>
