<svg width="24" height="24" viewBox="0 0 24 24" fill="none" xmlns="http://www.w3.org/2000/svg">
<path d="M9 17C9 17.7956 8.68393 18.5587 8.12132 19.1213C7.55871 19.6839 6.79565 20 6 20C5.20435 20 4.44129 19.6839 3.87868 19.1213C3.31607 18.5587 3 17.7956 3 17C3 16.2044 3.31607 15.4413 3.87868 14.8787C4.44129 14.3161 5.20435 14 6 14C6.79565 14 7.55871 14.3161 8.12132 14.8787C8.68393 15.4413 9 16.2044 9 17ZM9 17V4H19V11M9 8H19M18 22L21.35 18.716C21.5554 18.5167 21.7188 18.2782 21.8306 18.0146C21.9423 17.7511 22.0001 17.4678 22.0006 17.1816C22.0011 16.8953 21.9442 16.6119 21.8333 16.3479C21.7224 16.084 21.5598 15.845 21.355 15.645C20.9374 15.2359 20.3764 15.0062 19.7917 15.0051C19.2071 15.004 18.6452 15.2315 18.226 15.639L18.002 15.859L17.779 15.639C17.3614 15.2302 16.8006 15.0007 16.2162 14.9996C15.6318 14.9985 15.0701 15.2258 14.651 15.633C14.4455 15.8323 14.282 16.0707 14.1702 16.3342C14.0583 16.5977 14.0004 16.881 13.9999 17.1672C13.9993 17.4535 14.0561 17.737 14.1669 18.0009C14.2777 18.2648 14.4403 18.5039 14.645 18.704L18 22Z" stroke="black" stroke-linecap="round" stroke-linejoin="round"/>
</svg>
